<?xml version="1.0" encoding="UTF-8" standalone="no"?><!DOCTYPE svg PUBLIC "-//W3C//DTD SVG 1.1//EN" "http://www.w3.org/Graphics/SVG/1.1/DTD/svg11.dtd"><svg width="100%" height="100%" viewBox="0 0 3508 2481" version="1.1" xmlns="http://www.w3.org/2000/svg" xmlns:xlink="http://www.w3.org/1999/xlink" xml:space="preserve" xmlns:serif="http://www.serif.com/" style="fill-rule:evenodd;clip-rule:evenodd;stroke-linecap:round;stroke-linejoin:round;stroke-miterlimit:1.5;"><g><path d="M676.891,1488.221l18.602,-66.142l45.472,-68.209l47.539,-49.606l20.669,-43.405l37.205,-14.468l45.472,-28.937l57.874,-33.071l37.205,-35.138l28.937,-33.071l24.704,-30.293l32.823,-23.695l30.805,-34.278l54.997,-19.264l30.293,-16.486l20.669,-28.937l2.067,-41.339l6.201,-47.539l18.602,-24.803l10.335,-45.472l20.669,-39.272l6.201,-33.071l0,-28.937l-10.335,-26.87l41.339,-24.803l24.803,14.468l24.803,-26.87l16.535,-33.071l26.87,-8.268l24.803,-6.201l0,-53.74l4.134,-66.142l16.535,-41.339l37.205,-53.74l24.803,-20.669l20.669,-33.071l47.539,0l26.87,14.468l45.472,6.201l41.339,24.803l70.276,57.874l31.004,33.071l26.87,33.071l53.74,31.004l37.205,35.138l37.205,62.008l26.87,37.205l18.602,35.138l8.268,31.004l22.736,45.472l20.669,28.937l16.535,31.004l10.335,35.138l-14.468,57.874l18.602,31.004l31.004,20.669l39.272,8.268l16.535,22.736l35.138,28.937l33.071,31.004l31.004,45.472l57.874,12.402l8.268,14.468l22.736,-2.067l37.205,-16.535l45.472,20.669l51.673,31.004l37.205,26.87l26.87,28.937l47.539,26.87l59.941,35.138l70.276,33.071l51.673,26.87l20.669,16.535" style="fill:none;stroke:#000;stroke-width:19.87px;"/><path d="M1537.193,325.373l41.339,38.755l25.837,33.588l12.918,46.506l18.086,38.755l25.837,41.339l36.171,28.42l33.588,20.669l-31.004,38.755l-28.42,49.09l-15.502,51.673l-10.335,46.506l-2.584,54.257l-10.335,54.257l0,54.257l7.751,33.588l0,33.588l-25.837,33.588l-23.253,31.004l-18.086,54.257l-20.669,46.506l-33.588,46.506l-15.502,41.339l-23.253,46.506l-43.922,98.179l-43.922,23.253l-25.837,23.253l41.339,56.84" style="fill:none;stroke:#000;stroke-width:19.87px;"/></g><g><g transform="matrix(1,0,0,1,-248.605424,363.926006)"><text x="933.625px" y="1017.317px" style="font-family:'AgencyFB-Bold', 'Agency FB', sans-serif;font-weight:700;font-stretch:condensed;font-size:900px;stroke:#fff;stroke-width:45.42px;stroke-linecap:butt;stroke-miterlimit:2;">A</text><g transform="matrix(400,0,0,400,2870.929195,1017.316683)"></g><text x="1339.679px" y="1017.317px" style="font-family:'AgencyFB-Bold', 'Agency FB', sans-serif;font-weight:700;font-stretch:condensed;font-size:400px;stroke:#fff;stroke-width:45.42px;stroke-linecap:butt;stroke-miterlimit:2;">lpine Peaks</text></g></g><path d="M540.611,1531.948l129.799,-40.694l2119.35,-1.309l4.462,-151.336c0,0 -1.888,-44.045 -7.552,-65.111c-5.664,-21.065 -6.864,-21.68 -6.864,-21.68l-8.661,-21.022l-7.115,-19.139l-33.04,-88.028l-26.099,-57.359l-21.75,-45.103l-20.3,-38.729l-25.103,-47.401c0,0 115.544,42.628 202.391,271.167c86.847,228.539 70.988,220.879 70.988,220.879l12.838,267.337c0,0 12.083,120.263 -33.228,191.502c-45.312,71.239 -46.822,-9.192 -46.822,-9.192l-0.755,-82.729c0,0 43.801,-66.643 -3.776,-119.497c-47.577,-52.855 -63.436,-74.303 -63.436,-74.303l-2104.531,-9.345l-130.797,-58.909" style="stroke:#000;stroke-width:8.33px;"/><g><g transform="matrix(1,0,0,1,-248.605424,363.926006)"><text x="933.625px" y="1017.317px" style="font-family:'AgencyFB-Bold', 'Agency FB', sans-serif;font-weight:700;font-stretch:condensed;font-size:900px;">A</text><g transform="matrix(400,0,0,400,2870.929195,1017.316683)"></g><text x="1339.679px" y="1017.317px" style="font-family:'AgencyFB-Bold', 'Agency FB', sans-serif;font-weight:700;font-stretch:condensed;font-size:400px;">lpine Peaks</text></g></g></svg>